<?xml version="1.0" encoding="UTF-8"?>
<svg width="20px" height="20px" viewBox="0 0 20 20" version="1.1" xmlns="http://www.w3.org/2000/svg" xmlns:xlink="http://www.w3.org/1999/xlink">
    <title>icon_trade</title>
    <defs>
        <linearGradient x1="50%" y1="100%" x2="50%" y2="3.061617e-15%" id="linearGradient-1">
            <stop stop-color="#D573E8" offset="0%"></stop>
            <stop stop-color="#C373EB" offset="100%"></stop>
        </linearGradient>
    </defs>
    <g id="icon_trade" stroke="none" stroke-width="1" fill="none" fill-rule="evenodd">
        <path d="M9.99909091,0.5 C10.406932,0.5 10.7434925,0.805188447 10.7928578,1.19965 L10.7990909,1.3 L10.799,3.472 L14.09,3.47272727 C14.5318278,3.47272727 14.89,3.83089947 14.89,4.27272727 C14.89,4.68056832 14.5848119,5.01712885 14.1903503,5.06649414 L14.09,5.07272727 L10.799,5.072 L10.799,9.2 L12.0445455,9.2 C14.0679159,9.20000004 15.7081818,10.8402659 15.7081818,12.8636364 C15.7081818,14.8217368 14.1720327,16.4210505 12.2391173,16.5221944 L12.0445455,16.5272727 L10.799,16.527 L10.7990909,18.7 C10.7990909,19.1418278 10.4409187,19.5 9.99909091,19.5 C9.59124986,19.5 9.25468933,19.1948116 9.20532404,18.80035 L9.19909091,18.7 L9.199,16.527 L5.09,16.5272727 C4.6481722,16.5272727 4.29,16.1691005 4.29,15.7272727 C4.29,15.3194317 4.59518815,14.9828711 4.9896497,14.9335059 L5.09,14.9272727 L9.199,14.927 L9.199,10.8 L7.95363636,10.8 C5.93026587,10.8 4.29,9.15973413 4.29,7.13636364 C4.29,5.17826316 5.8261491,3.57894953 7.75906447,3.47780557 L7.95363636,3.47272727 L9.199,3.472 L9.19909091,1.3 C9.19909091,0.8581722 9.55726311,0.5 9.99909091,0.5 Z M10.799,14.927 L12.0445455,14.9272727 C13.1842603,14.9272727 14.1081818,14.0033512 14.1081818,12.8636364 C14.1081818,11.7734743 13.2628548,10.8807489 12.1919219,10.8051814 L12.0445455,10.8 L10.799,10.8 L10.799,14.927 Z M9.199,9.2 L9.199,5.072 L7.95363636,5.07272727 C6.81392147,5.07272727 5.89,5.99664874 5.89,7.13636364 C5.89,8.22652571 6.73532702,9.11925108 7.80625988,9.19481857 L7.95363636,9.2 L9.199,9.2 Z" id="形状结合" fill="url(#linearGradient-1)"></path>
    </g>
</svg>