<?xml version="1.0" encoding="UTF-8"?>
<svg width="20px" height="20px" viewBox="0 0 20 20" version="1.1" xmlns="http://www.w3.org/2000/svg" xmlns:xlink="http://www.w3.org/1999/xlink">
    <title>icon_liquidity</title>
    <defs>
        <linearGradient x1="50%" y1="0%" x2="50%" y2="100%" id="linearGradient-1">
            <stop stop-color="#9975F2" offset="0%"></stop>
            <stop stop-color="#A574EF" offset="100%"></stop>
        </linearGradient>
    </defs>
    <g id="icon_liquidity" stroke="none" stroke-width="1" fill="none" fill-rule="evenodd">
        <g id="编组-11" transform="translate(1.000000, 2.000000)">
            <rect id="矩形" x="1.00005169" y="0" width="16" height="16"></rect>
            <path d="M16.0000517,1.2 C16.9941642,1.2 17.8000517,2.00588745 17.8000517,2.99990406 L17.8000517,2.99990406 L17.800395,5.86264034 L17.4008435,6.09370918 C16.7246332,6.48477556 16.3000517,7.20497153 16.3000517,8 C16.3000517,8.79502847 16.7246332,9.51522444 17.4008435,9.90629082 L17.4008435,9.90629082 L17.800395,10.1373597 L17.8000517,13 C17.8000517,13.9941125 16.9941642,14.8 16.0000517,14.8 L16.0000517,14.8 L2.00005169,14.8 C1.00593914,14.8 0.199990068,13.9941125 0.199990068,13.0000172 L0.199990068,13.0000172 L0.199990068,10.1372453 L0.599433032,9.90619064 C1.275547,9.5150978 1.70005169,8.79495729 1.70005169,8 C1.70005169,7.20504271 1.275547,6.4849022 0.599433032,6.09380936 L0.599433032,6.09380936 L0.199990068,5.86275471 L0.199990068,3 C0.199990068,2.00588745 1.00593914,1.2 2.00005169,1.2 L2.00005169,1.2 Z M16.0000517,2.8 L2.00005169,2.8 C1.88959474,2.8 1.80005169,2.88954305 1.80005169,3.00001722 L1.80005169,3.00001722 L1.799,4.976 L1.9459954,5.0914493 C2.73412204,5.75423609 3.23061243,6.71753959 3.29330836,7.77258964 L3.29330836,7.77258964 L3.30005169,8 C3.30005169,9.14331238 2.7904168,10.198422 1.9459954,10.9085507 L1.9459954,10.9085507 L1.799,11.023 L1.80005169,13 C1.80005169,13.0920475 1.86223436,13.1695714 1.94688376,13.1928558 L1.94688376,13.1928558 L2.00005169,13.2 L16.0000517,13.2 C16.1105086,13.2 16.2000517,13.1104569 16.2000517,12.9999041 L16.2000517,12.9999041 L16.2000517,11.024 L16.0543271,10.9087352 C15.2660817,10.2459496 14.7695033,9.28257389 14.7067962,8.22743063 L14.7067962,8.22743063 L14.7000517,8 C14.7000517,6.85658484 15.2097784,5.80139223 16.0543271,5.09126478 L16.0543271,5.09126478 L16.2000517,4.975 L16.2000517,3 C16.2000517,2.90795254 16.137869,2.83042863 16.0532196,2.80714419 L16.0532196,2.80714419 L16.0000517,2.8 Z M11.9986993,8.54998731 C12.5615726,8.54998731 12.8804765,9.17137997 12.5915556,9.62304523 L12.5301712,9.70555032 L11.0301195,11.4555503 C10.778519,11.7490741 10.3366084,11.7830597 10.0430846,11.5314592 C9.77891318,11.3050187 9.72496774,10.9244271 9.90023713,10.6365944 L9.96717575,10.5444243 L10.477751,9.94998731 L6.9986993,9.94998731 C6.64431659,9.94998731 6.35144107,9.68664369 6.30508947,9.34497317 L6.2986993,9.24998731 C6.2986993,8.8956046 6.56204292,8.60272908 6.90371345,8.55637749 L6.9986993,8.54998731 L11.9986993,8.54998731 Z M7.34728372,4.39222207 C7.65243507,4.56658525 7.77656224,4.9358213 7.6525071,5.25370531 L7.60777793,5.34728372 L7.205,6.05 L11.0000517,6.05 C11.3544344,6.05 11.6473099,6.31334362 11.6936615,6.65501415 L11.7000517,6.75 C11.7000517,7.10438271 11.4367081,7.39725823 11.0950375,7.44360983 L11.0000517,7.45 L6.00005169,7.45 C5.49617455,7.45 5.16852785,6.93968589 5.34925219,6.49138091 L5.39227375,6.40271628 L6.39222207,4.65271628 C6.58402157,4.31704979 7.01161724,4.20042256 7.34728372,4.39222207 Z" id="形状结合" fill="url(#linearGradient-1)" fill-rule="nonzero"></path>
        </g>
    </g>
</svg>