<?xml version="1.0" encoding="UTF-8"?>
<svg width="20px" height="20px" viewBox="0 0 20 20" version="1.1" xmlns="http://www.w3.org/2000/svg" xmlns:xlink="http://www.w3.org/1999/xlink">
    <title>icon_pool</title>
    <defs>
        <linearGradient x1="50%" y1="0%" x2="50%" y2="100%" id="linearGradient-1">
            <stop stop-color="#6A77F8" offset="0%"></stop>
            <stop stop-color="#7976F6" offset="100%"></stop>
        </linearGradient>
    </defs>
    <g id="icon_pool" stroke="none" stroke-width="1" fill="none" fill-rule="evenodd">
        <g id="编组-9" transform="translate(0.300000, 2.000000)">
            <rect id="矩形" x="1.5" y="0" width="16" height="16"></rect>
            <g id="编组-4" transform="translate(0.500000, 0.000000)" fill="url(#linearGradient-1)" fill-rule="nonzero">
                <path d="M6,0.2 C8.87831012,0.2 11.3,1.27630661 11.3,3 L11.3,3 L11.3,13 C11.3,14.7236934 8.87831012,15.8 6,15.8 C3.2089114,15.8 0.847188386,14.7879357 0.706616641,13.154904 L0.7,13 L0.7,3 L0.706616641,2.84509597 C0.847188386,1.21206425 3.2089114,0.2 6,0.2 Z M13.0005799,6.21133934 L13.0366206,6.21304097 L13.0366206,6.21304097 C15.6022454,6.33846393 17.6672921,7.32070333 17.793852,8.85027836 L17.8,9 L17.8,12.5 L17.795,12.499 L17.7933834,12.554904 C17.6612897,14.0894455 15.5678864,15.0756635 12.9999239,15.1890418 L12.9997412,13.5863572 C14.7685741,13.4894778 16.0897931,12.8966832 16.1934408,12.4548333 L16.2,12.4 L16.2001746,11.0612093 C15.3627541,11.4737322 14.2589836,11.7265604 13.0422896,11.7866804 L12.9997412,11.7883393 L12.9997412,10.1863393 L13.1962082,10.1740545 C14.959373,10.0403127 16.2,9.41101562 16.2,9 C16.2,8.57369587 14.8664048,7.91324311 13.0001171,7.81326463 L13.0005799,6.21133934 Z M6,12.4 C4.57521667,12.4 3.26231982,12.1362706 2.29965755,11.6608366 L2.3,13 C2.3,13.4854456 3.90774737,14.2 6,14.2 C8.01476179,14.2 9.58024299,13.5373954 9.69344082,13.0548333 L9.7,13 L9.70134684,11.6603405 C8.73859348,12.1360871 7.42527891,12.4 6,12.4 Z M6,9.1 C4.57521667,9.1 3.26231982,8.83627063 2.29965755,8.36083663 L2.3,9.6 C2.3,10.0854456 3.90774737,10.8 6,10.8 C8.01476179,10.8 9.58024299,10.1373954 9.69344082,9.65483329 L9.7,9.6 L9.70134684,8.36034045 C8.73859348,8.83608714 7.42527891,9.1 6,9.1 Z M9.70134684,5.06034045 C8.73859348,5.53608714 7.42527891,5.8 6,5.8 C4.57521667,5.8 3.26231982,5.53627063 2.29965755,5.06083663 L2.3,6.3 C2.3,6.78544561 3.90774737,7.5 6,7.5 C8.01476179,7.5 9.58024299,6.83739538 9.69344082,6.35483329 L9.7,6.3 Z M6,1.8 C3.90774737,1.8 2.3,2.51455439 2.3,3 C2.3,3.48544561 3.90774737,4.2 6,4.2 C8.09225263,4.2 9.7,3.48544561 9.7,3 C9.7,2.51455439 8.09225263,1.8 6,1.8 Z" id="形状结合"></path>
            </g>
            <g id="编组-4" transform="translate(13.000000, 6.000000)"></g>
        </g>
    </g>
</svg>