<?xml version="1.0" encoding="UTF-8"?>
<svg width="20px" height="20px" viewBox="0 0 20 20" version="1.1" xmlns="http://www.w3.org/2000/svg" xmlns:xlink="http://www.w3.org/1999/xlink">
    <title>icon_swap_p</title>
    <defs>
        <linearGradient x1="50%" y1="100%" x2="50%" y2="3.061617e-15%" id="linearGradient-1">
            <stop stop-color="#4B78FC" offset="0%"></stop>
            <stop stop-color="#3E79FF" offset="100%"></stop>
        </linearGradient>
    </defs>
    <g id="icon_swap_p" stroke="none" stroke-width="1" fill="none" fill-rule="evenodd">
        <path d="M2.5,9.41083658 C2.59509201,9.41083658 2.68821228,9.43795327 2.76843775,9.48900584 L6.78503894,12.0450248 C7.01800963,12.1932789 7.08668601,12.5023226 6.93843194,12.7352933 C6.89302872,12.8066412 6.83027033,12.8653071 6.75602726,12.9058033 L5.10485301,13.8070089 C6.24688541,15.2721621 8.0278258,16.2 10,16.2 C12.1560914,16.2 14.1180353,15.0907851 15.2439209,13.3095554 L15.374973,13.0926101 L16.7609586,13.8920123 C15.3777762,16.290143 12.8200685,17.8 10,17.8 C7.42655949,17.8 5.11240106,16.5447393 3.68505368,14.5810306 L2.73942607,15.0966767 C2.4970019,15.2289081 2.19328358,15.1395791 2.06105221,14.897155 C2.02099169,14.8237107 2,14.7413884 2,14.6577289 L2,9.91083658 C2,9.63469421 2.22385763,9.41083658 2.5,9.41083658 Z M10,2.2 C12.4632335,2.2 14.6979056,3.35146859 16.1386254,5.18547833 L17.2315623,4.48900584 C17.3117877,4.43795327 17.404908,4.41083658 17.5,4.41083658 C17.7761424,4.41083658 18,4.63469421 18,4.91083658 L18,4.91083658 L18,9.65772891 C18,9.7413884 17.9790083,9.82371067 17.9389478,9.89715497 C17.8067164,10.1395791 17.5029981,10.2289081 17.2605739,10.0966767 L17.2605739,10.0966767 L13.2439727,7.90580331 C13.1697297,7.86530709 13.1069713,7.80664119 13.0615681,7.73529327 C12.913314,7.50232258 12.9819904,7.19327885 13.2149611,7.04502478 L13.2149611,7.04502478 L14.7798878,6.04927192 C13.6326963,4.66388154 11.9019185,3.8 10,3.8 C7.82535558,3.8 5.84891233,4.92852746 4.72847611,6.73448242 L4.5981747,6.95441979 L3.20524928,6.16717221 C4.57923425,3.73609635 7.15562517,2.2 10,2.2 Z" id="形状结合" fill="url(#linearGradient-1)"></path>
    </g>
</svg>