<?xml version="1.0" encoding="UTF-8"?>
<svg width="22px" height="24px" viewBox="0 0 22 24" version="1.1" xmlns="http://www.w3.org/2000/svg" xmlns:xlink="http://www.w3.org/1999/xlink">
    <title>形状结合</title>
    <defs>
        <linearGradient x1="10.8793761%" y1="0%" x2="92.0148587%" y2="101.88879%" id="linearGradient-1">
            <stop stop-color="#4883FF" offset="0%"></stop>
            <stop stop-color="#062EF5" offset="100%"></stop>
        </linearGradient>
    </defs>
    <g id="控件" stroke="none" stroke-width="1" fill="none" fill-rule="evenodd">
        <g id="标题栏/未登录" transform="translate(-24.000000, -23.000000)" fill="url(#linearGradient-1)">
            <g id="编组-8" transform="translate(24.000000, 23.000000)">
                <path d="M20.937,8.46717992e-06 C21.5240005,-6.97578272e-05 21.9999218,0.475724717 22,1.06272517 L22,1.06286681 L22,1.550102 C22,1.92076131 21.8627632,2.27829488 21.6147537,2.55375744 L2.75287802,23.5035222 C2.4684206,23.8194673 2.06325644,23.9998668 1.63812434,23.9998668 L1.153,23.9998668 C0.516215683,23.9998668 -1.0376991e-14,23.4836511 -7.10542736e-15,22.8468668 L-7.10542736e-15,16.675676 C-6.48468937e-15,16.304991 0.137255871,15.9474344 0.385296324,15.6719651 L14.0492073,0.497066843 C14.3336165,0.18120707 14.7386747,0.000834470019 15.1637111,0.000777828705 L20.937,8.46717992e-06 Z M15.7129721,14.6828638 C15.7519272,14.7179316 15.7890174,14.755017 15.8240902,14.7939676 L21.6139451,21.2239628 C21.8619911,21.4994334 21.9992504,21.856994 21.9992504,22.2276837 L21.9992504,22.8258684 C21.9992504,23.4742506 21.4736327,23.9998684 20.8252504,23.9998684 L15.362075,23.9998684 C14.9369726,23.9998684 14.5318338,23.8194939 14.2473783,23.5035871 L10.9039242,19.7904584 C10.3902354,19.2199727 10.3901801,18.3537143 10.9037962,17.783163 L13.5945708,14.7941119 C14.1488309,14.1784112 15.0972714,14.1286038 15.7129721,14.6828638 Z M5.5,0.000866809399 C6.32842712,0.000866809399 7,0.672439685 7,1.50086681 L7,4.36605493 C7,4.73674253 6.86274226,5.09430133 6.61469877,5.36977134 L1.74313252,10.7799936 C1.37357434,11.1904144 0.741276478,11.2235401 0.330855723,10.8539819 C0.120250229,10.6643448 7.95266753e-14,10.3942517 7.81597009e-14,10.1108494 L7.81597009e-14,1.50086681 C7.80582479e-14,0.672439685 0.671572875,0.000866809399 1.5,0.000866809399 L5.5,0.000866809399 Z" id="形状结合"></path>
            </g>
        </g>
    </g>
</svg>