<?xml version="1.0" encoding="UTF-8"?>
<svg width="96px" height="22px" viewBox="0 0 96 22" version="1.1" xmlns="http://www.w3.org/2000/svg" xmlns:xlink="http://www.w3.org/1999/xlink">
    <title>Logo</title>
    <defs>
        <linearGradient x1="11.5242161%" y1="0%" x2="91.322312%" y2="101.88879%" id="linearGradient-1">
            <stop stop-color="#4883FF" offset="0%"></stop>
            <stop stop-color="#062EF5" offset="100%"></stop>
        </linearGradient>
    </defs>
    <g id="页面-4" stroke="none" stroke-width="1" fill="none" fill-rule="evenodd">
        <g id="iPhone-12-Pro" transform="translate(-24.000000, -121.000000)">
            <g id="编组-15" transform="translate(0.000000, 96.000000)">
                <g id="Logo" transform="translate(24.000000, 24.999999)">
                    <path d="M19.0255775,-7.65711325e-07 C19.5636639,-7.30702997e-05 19.9999277,0.436073489 20,0.974159841 L20,0.97429076 L20,1.42417928 C20,1.76199569 19.8756405,2.08799044 19.6506445,2.33997605 L2.50638945,21.5407896 C2.24551576,21.8329567 1.87242169,22.0000006 1.48073725,22.0000006 L1.04818182,22.0000006 C0.469286985,22.0000006 1.29140319e-16,21.5307136 0,20.9518187 L0,15.282864 C6.12752122e-16,14.945024 0.124376872,14.6190081 0.349401108,14.3670161 L12.7682344,0.459862094 C13.0290638,0.167773832 13.40206,0.000754886459 13.7936562,0.000702266281 L19.0255775,-7.65711325e-07 Z M14.2879036,13.4650561 C14.3265697,13.4995758 14.363253,13.5362543 14.3977777,13.5749159 L19.6499093,19.4563776 C19.8749385,19.7083708 19.9993185,20.0343904 19.9993185,20.3722346 L19.9993185,20.9238275 C19.9993185,21.5181815 19.5174994,22.0000006 18.9231455,22.0000006 L13.9739889,22.0000006 C13.5823317,22.0000006 13.2092609,21.8329799 12.9483888,21.5408479 L9.90888509,18.1371264 C9.44305296,17.6154745 9.44300274,16.8272583 9.9087684,16.305547 L12.3464624,13.5750486 C12.852203,13.0085608 13.7214159,12.9593155 14.2879036,13.4650561 Z M4.98862867,0.000784969776 C5.74802445,0.000784969776 6.36363636,0.616396883 6.36363636,1.37579266 L6.36363636,4.00548489 C6.36363636,4.34332723 6.23925779,4.66934512 6.01423079,4.92133775 L1.60040654,9.86408314 C1.26319883,10.2416994 0.683719496,10.274457 0.306103224,9.93724931 C0.111347704,9.7633345 -2.41051445e-15,9.51462005 0,9.25351457 L0,1.37579266 C1.29045444e-16,0.616396883 0.615611913,0.000784969776 1.37500769,0.000784969776 L4.98862867,0.000784969776 Z" id="形状结合" fill="url(#linearGradient-1)"></path>
                    <path d="M32.7075426,18.0209878 L32.7075426,12.0377567 L37.6197985,18.0209878 L41.0429059,18.0209878 L35.3183873,11.2489706 L40.8881892,4.59238549 L37.6197985,4.59238549 L32.7075426,10.614094 L32.7075426,4.59238549 L30,4.59238549 L30,18.0209878 L32.7075426,18.0209878 Z M47.4829894,18.1556586 C48.4757551,18.1556586 49.3331436,17.9728911 50.0551549,17.607356 C50.7771663,17.241821 51.3251213,16.7512346 51.6990201,16.1355966 C52.0729188,15.5199587 52.2598682,14.8530176 52.2598682,14.1347734 C52.2598682,13.301097 52.0600258,12.627743 51.6603409,12.1147114 C51.260656,11.6016798 50.7836128,11.2169061 50.2292112,10.9603903 C49.6748097,10.7038745 48.9592448,10.4473587 48.0825167,10.1908429 C47.4378637,9.99845604 46.9382577,9.82851432 46.5836985,9.68101773 C46.2291394,9.53352114 45.932599,9.34113429 45.6940774,9.10385717 C45.4555557,8.86658005 45.3362949,8.56838043 45.3362949,8.20925831 C45.3362949,7.6962267 45.4942349,7.3050401 45.8101149,7.03569851 C46.1259949,6.76635692 46.5482426,6.63168612 47.076858,6.63168612 C47.6828319,6.63168612 48.1695449,6.78238915 48.5369971,7.08379522 C48.9044493,7.38520129 49.1010685,7.76676855 49.1268546,8.22849699 L52.1051515,8.22849699 C52.0149001,7.02287272 51.5346336,6.08338359 50.664352,5.41002961 C49.7940705,4.73667562 48.6627044,4.39999863 47.270254,4.39999863 C46.3419536,4.39999863 45.5167978,4.55711456 44.7947864,4.87134642 C44.0727751,5.18557828 43.5119269,5.63768738 43.1122421,6.22767373 C42.7125572,6.81766008 42.5127148,7.51025275 42.5127148,8.30545173 C42.5127148,9.15195389 42.709334,9.82851432 43.1025723,10.335133 C43.4958106,10.8417517 43.9664073,11.2201125 44.5143624,11.4702155 C45.0623174,11.7203184 45.774659,11.9736277 46.6513871,12.2301435 C47.2960401,12.4097046 47.8020927,12.5732334 48.1695449,12.72073 C48.5369971,12.8682266 48.8432073,13.0702328 49.0881754,13.3267486 C49.3331436,13.5832644 49.4556276,13.910322 49.4556276,14.3079215 C49.4556276,14.7953016 49.2751248,15.1896946 48.9141191,15.4911007 C48.5531134,15.7925067 48.0567306,15.9432098 47.4249707,15.9432098 C46.8061038,15.9432098 46.3193908,15.7828874 45.9648316,15.4622426 C45.6102725,15.1415979 45.4136533,14.705521 45.3749741,14.154012 L42.4740356,14.154012 C42.4869287,14.9748626 42.7125572,15.686694 43.1509213,16.2895061 C43.5892853,16.8923182 44.1855893,17.3540467 44.9398333,17.6746914 C45.6940774,17.9953362 46.5417961,18.1556586 47.4829894,18.1556586 Z M59.4928749,18.0209878 L61.4461735,10.5756166 L63.3994721,18.0209878 L66.3197502,18.0209878 L69.4527638,7.36275616 L66.8612587,7.36275616 L64.9659789,15.4622426 L62.9546615,7.36275616 L60.0924022,7.36275616 L58.0424056,15.4814813 L56.1471258,7.36275616 L53.400904,7.36275616 L56.5532572,18.0209878 L59.4928749,18.0209878 Z M75.0999241,18.1941359 C75.8992938,18.1941359 76.6051889,18.0306071 77.2176092,17.7035495 C77.8300296,17.3764918 78.310296,16.9628601 78.6584087,16.4626543 L78.6584087,18.0209878 L81.3852909,18.0209878 L81.3852909,7.36275616 L78.6584087,7.36275616 L78.6584087,8.88261229 C78.297403,8.39523227 77.8171365,7.99121988 77.2176092,7.67057512 C76.6180819,7.34993037 75.9186334,7.18960799 75.1192637,7.18960799 C74.2038564,7.18960799 73.3754773,7.41405932 72.6341264,7.86296197 C71.8927754,8.31186463 71.3061412,8.95315414 70.8742237,9.7868305 C70.4423061,10.6205069 70.2263474,11.5760282 70.2263474,12.6533946 C70.2263474,13.7435868 70.4423061,14.7087275 70.8742237,15.5488167 C71.3061412,16.388906 71.8927754,17.0398148 72.6341264,17.5015433 C73.3754773,17.9632717 74.1974099,18.1941359 75.0999241,18.1941359 Z M75.8154889,15.8277777 C75.3255526,15.8277777 74.8646257,15.6995198 74.4327082,15.443004 C74.0007907,15.1864882 73.6526781,14.8177467 73.3883704,14.3367796 C73.1240626,13.8558124 72.9919088,13.2946841 72.9919088,12.6533946 C72.9919088,12.0121051 73.1240626,11.4573897 73.3883704,10.9892483 C73.6526781,10.521107 73.9975675,10.1651913 74.4230384,9.92150129 C74.8485094,9.67781128 75.3126596,9.55596627 75.8154889,9.55596627 C76.3183183,9.55596627 76.788915,9.68101773 77.227279,9.93112064 C77.665643,10.1812235 78.0137557,10.5403457 78.2716169,11.008487 C78.5294781,11.4766284 78.6584087,12.0377567 78.6584087,12.691872 C78.6584087,13.3459873 78.5294781,13.9071156 78.2716169,14.3752569 C78.0137557,14.8433983 77.665643,15.2025204 77.227279,15.4526233 C76.788915,15.7027262 76.3183183,15.8277777 75.8154889,15.8277777 Z M86.7423573,22.0000006 L86.7423573,16.5011316 C87.1162561,16.9885117 87.6029691,17.3925241 88.2024964,17.7131688 C88.8020237,18.0338136 89.4950256,18.1941359 90.2815023,18.1941359 C91.1969096,18.1941359 92.0252887,17.9632717 92.7666396,17.5015433 C93.5079906,17.0398148 94.0946248,16.388906 94.5265423,15.5488167 C94.9584598,14.7087275 95.1744186,13.7435868 95.1744186,12.6533946 C95.1744186,11.5632024 94.9584598,10.6044746 94.5265423,9.77721116 C94.0946248,8.94994769 93.5079906,8.31186463 92.7666396,7.86296197 C92.0252887,7.41405932 91.1969096,7.18960799 90.2815023,7.18960799 C89.4950256,7.18960799 88.7955771,7.35313682 88.1831568,7.68019446 C87.5707364,8.00725211 87.0904699,8.41447095 86.7423573,8.90185098 L86.7423573,7.36275616 L84.0348147,7.36275616 L84.0348147,22.0000006 L86.7423573,22.0000006 Z M89.5659375,15.8277777 C89.0760012,15.8277777 88.6150743,15.7027262 88.1831568,15.4526233 C87.7512393,15.2025204 87.4031267,14.8401918 87.1388189,14.3656376 C86.8745112,13.8910833 86.7423573,13.3331615 86.7423573,12.691872 C86.7423573,12.0505825 86.8745112,11.4926606 87.1388189,11.0181064 C87.4031267,10.5435521 87.7512393,10.1812235 88.1831568,9.93112064 C88.6150743,9.68101773 89.0760012,9.55596627 89.5659375,9.55596627 C90.0687668,9.55596627 90.5361402,9.67781128 90.9680578,9.92150129 C91.3999753,10.1651913 91.7480879,10.521107 92.0123956,10.9892483 C92.2767034,11.4573897 92.4088572,12.0121051 92.4088572,12.6533946 C92.4088572,13.3075099 92.2767034,13.8718447 92.0123956,14.3463989 C91.7480879,14.8209531 91.3999753,15.1864882 90.9680578,15.443004 C90.5361402,15.6995198 90.0687668,15.8277777 89.5659375,15.8277777 Z" id="KSwap" fill="#262626" fill-rule="nonzero"></path>
                </g>
            </g>
        </g>
    </g>
</svg>