<?xml version="1.0" encoding="UTF-8"?>
<svg width="20px" height="20px" viewBox="0 0 20 20" version="1.1" xmlns="http://www.w3.org/2000/svg" xmlns:xlink="http://www.w3.org/1999/xlink">
    <title>画板</title>
    <g id="画板" stroke="none" stroke-width="1" fill="none" fill-rule="evenodd">
        <path d="M3.77777778,8.22 C4.75961733,8.22 5.55555556,9.01593822 5.55555556,9.99777778 C5.55555556,10.9796173 4.75961733,11.7755556 3.77777778,11.7755556 C2.79593822,11.7755556 2,10.9796173 2,9.99777778 C2,9.01593822 2.79593822,8.22 3.77777778,8.22 Z M10,8.22 C10.9818396,8.22 11.7777778,9.01593822 11.7777778,9.99777778 C11.7777778,10.9796173 10.9818396,11.7755556 10,11.7755556 C9.01816044,11.7755556 8.22222222,10.9796173 8.22222222,9.99777778 C8.22222222,9.01593822 9.01816044,8.22 10,8.22 Z M16.2222222,8.22 C17.2040618,8.22 18,9.01593822 18,9.99777778 C18,10.9796173 17.2040618,11.7755556 16.2222222,11.7755556 C15.2403827,11.7755556 14.4444444,10.9796173 14.4444444,9.99777778 C14.4444444,9.01593822 15.2403827,8.22 16.2222222,8.22 Z" id="形状结合" fill="#000000"></path>
    </g>
</svg>