<?xml version="1.0" encoding="UTF-8"?>
<svg width="20px" height="20px" viewBox="0 0 20 20" version="1.1" xmlns="http://www.w3.org/2000/svg" xmlns:xlink="http://www.w3.org/1999/xlink">
    <title>画板</title>
    <g id="画板" stroke="none" stroke-width="1" fill="none" fill-rule="evenodd">
        <g id="编组" fill="#000000" fill-rule="nonzero">
            <g id="编组-3">
                <path d="M16.1873449,4.79184282 C16.615849,5.22035139 16.6426305,5.89846097 16.2676894,6.35816966 L16.1873449,6.44706072 L15.8142694,6.82004587 C16.8876332,8.44000653 17.8665034,10.6387381 18.761729,13.4188963 C18.8949216,13.8295755 18.6692605,14.2700291 18.2586516,14.4022502 C18.0148209,14.4807667 17.7504856,14.4340929 17.5495519,14.2824965 L17.4675637,14.2111619 L14.1096205,10.8539883 L13.8986309,10.6567592 C13.7127431,10.4908331 13.5794159,10.396502 13.4675085,10.3411662 L13.4026852,10.3123834 L13.2692756,10.2662522 C13.0534062,10.2008222 12.8384145,10.2008222 12.6225452,10.2662522 C12.4497881,10.3186148 12.323448,10.3839146 12.1296513,10.5416814 L11.860135,10.7724572 L4.46300715,18.1715208 C3.66147679,18.9730595 2.38359179,19.007909 1.54063929,18.2760693 L1.42847267,18.1715208 C0.626942309,17.3699821 0.592093163,16.0920837 1.32392523,15.2491224 L1.42847267,15.1369546 L8.82629021,7.73720141 L9.05823243,7.4702305 C9.18444457,7.31519153 9.25147846,7.20332527 9.30005291,7.07632776 L9.33365883,6.97733153 C9.38600221,6.80463424 9.39647089,6.63249866 9.36888119,6.47185548 L9.3411126,6.35369871 L9.29716125,6.22354034 C9.25402327,6.11263557 9.18708352,5.99817473 9.0688539,5.85019599 L8.97013533,5.73245917 L8.75586354,5.50067038 L8.62599255,5.36856621 L5.38897538,2.13254271 C5.08375869,1.82790117 5.08355734,1.33348765 5.38838872,1.02865309 C5.59537985,0.821659804 5.90076544,0.747848787 6.17940614,0.837571624 C8.96107925,1.73327568 11.1604182,2.71243972 12.780572,3.78607781 L13.1528104,3.41249458 C13.5813145,2.98398602 14.259417,2.95720423 14.7191209,3.33214923 L14.8080111,3.41249458 L16.1873449,4.79184282 Z M10.6001136,10.1000249 L9.49664647,8.99654635 L2.39400637,16.1024984 C2.13830229,16.3582052 2.09717506,16.7472342 2.27062468,17.0458279 L2.32909687,17.1324692 L2.39400637,17.205977 C2.67528085,17.4872544 3.11787369,17.5088911 3.42396638,17.2708872 L3.49747345,17.205977 L10.6001136,10.1000249 Z M13.4976439,6.10222365 C12.4709398,5.07550886 10.85765,4.10178498 8.6609688,3.1922242 L8.19044782,3.00101001 L9.59548034,4.40701052 L9.73384987,4.54776286 C10.1285515,4.95661331 10.3599253,5.26455066 10.5165693,5.60607747 L10.5793855,5.75489473 L10.6404238,5.93451447 C10.7841275,6.4086384 10.7841275,6.8992875 10.6404238,7.37341143 C10.6065224,7.48526272 10.5680526,7.5902199 10.5223359,7.69235807 L10.4479907,7.84396046 L10.3842783,7.95218053 L11.6470585,9.21497384 L11.7559253,9.15190865 L11.9075261,9.07756273 L12.0633553,9.01408734 L12.2264694,8.95947358 C12.6413235,8.83373147 13.0688296,8.81801371 13.5023246,8.91731379 L13.6884554,8.96692743 L13.871326,9.03014573 C14.2433541,9.17485434 14.57599,9.40805654 15.0379614,9.85241856 L15.1969736,10.0085282 L16.5981773,11.4088272 L16.4064324,10.9360798 C15.6053023,9.00181008 14.7544097,7.52008192 13.8613873,6.49307768 L13.6693833,6.2799662 L13.4976439,6.10222365 Z M15.0836688,5.6183233 L13.9802017,4.51484471 L13.8866879,4.60881191 C14.0927071,4.7824245 14.2848664,4.95836687 14.4631776,5.13667988 C14.6410496,5.31455378 14.8165628,5.506208 14.9897572,5.71165234 L15.0836688,5.6183233 Z" id="形状"></path>
            </g>
        </g>
    </g>
</svg>