<?xml version="1.0" encoding="UTF-8"?>
<svg width="20px" height="20px" viewBox="0 0 20 20" version="1.1" xmlns="http://www.w3.org/2000/svg" xmlns:xlink="http://www.w3.org/1999/xlink">
    <title>social_github</title>
    <g id="social_github" stroke="none" stroke-width="1" fill="none" fill-rule="evenodd">
        <path d="M10.0011261,1 L10.0532199,1.00015405 L10.0532199,1.00015405 C10.2978013,1.00157988 10.5399123,1.01301288 10.7793519,1.03407346 L10.779328,1.03327283 C15.383548,1.43904832 19,5.40387923 19,10.2400981 L18.9992243,10.1193917 C18.9468972,14.1441823 16.2526552,17.5317672 12.5713111,18.6273338 L12.5715894,16.3061278 C12.5722992,15.5991666 12.2964013,14.9215404 11.8058556,14.4254274 C14.6413229,13.9120887 15.8274596,12.1385265 15.8274596,10.0273631 C15.8274596,9.00222722 15.4956416,8.05416921 14.8432665,7.29418125 C15.2283855,6.06170583 14.7907161,5.01730044 14.7329107,4.85852 C13.645869,4.75677721 12.5182884,5.58690606 12.2930725,5.76418519 C11.6249322,5.57765671 10.862952,5.47745545 10.0108854,5.47745545 C9.16332319,5.47745545 8.40584727,5.57457359 7.74146057,5.75878973 C7.64686992,5.68325339 6.43370731,4.71592592 5.26408642,4.82383495 C5.20477958,4.98261541 4.75660007,6.05168572 5.16649289,7.30188904 C4.52312633,8.06033544 4.19431122,8.99991489 4.19431122,10.0219677 C4.19431122,12.1300479 5.37369145,13.9020685 8.20090087,14.4215735 C7.8576645,14.7645646 7.61566783,15.2000426 7.50273179,15.677943 C6.97647747,15.8128294 5.94123535,15.9492572 5.41047671,15.1422517 C4.67777453,14.0284763 4.04416732,13.6168803 3.42257162,13.9452321 C3.16207198,14.2543145 4.03590941,14.4200319 4.40676481,15.0697985 C4.59144179,15.3788809 4.70029612,17.2333748 7.429912,16.905023 L7.429912,16.905023 L7.429912,18.5059307 C7.429912,18.5445778 7.43187253,18.5862862 7.43302483,18.6284413 C3.71295941,17.5234397 1,14.0785427 1,10 L1.00074398,10.1184163 C1.06027131,5.31456591 4.68479642,1.39717566 9.28588131,1.02838168 C9.40800542,1.01833678 9.53033154,1.01121272 9.65328924,1.00655535 L9.74021397,1.00368169 L9.74021397,1.00368169 L10.0011261,1 L10.0011261,1 Z" id="形状结合" fill="#C1C7DF" fill-rule="nonzero"></path>
    </g>
</svg>