<?xml version="1.0" encoding="UTF-8"?>
<svg width="20px" height="20px" viewBox="0 0 20 20" version="1.1" xmlns="http://www.w3.org/2000/svg" xmlns:xlink="http://www.w3.org/1999/xlink">
    <title>social_medium</title>
    <g id="social_medium" stroke="none" stroke-width="1" fill="none" fill-rule="evenodd">
        <path d="M17.5632812,4.64517183 L19,3.29558101 L19,3 L14.0242187,3 L10.478125,11.6703764 L6.44453124,3 L1.22734374,3 L1.22734374,3.29558101 L2.90546876,5.27986905 C3.06953126,5.4265139 3.15390626,5.64189852 3.1328125,5.85728313 L3.1328125,13.6546645 C3.18437501,13.9364975 3.09296875,14.2229133 2.89140626,14.4268412 L1,16.6792144 L1,16.9702128 L6.3578125,16.9702128 L6.3578125,16.6746317 L4.46875,14.4291326 C4.26358726,14.2254968 4.16737566,13.9399285 4.20859375,13.6569558 L4.20859375,6.91129296 L8.91250001,16.9747954 L9.45859375,16.9747954 L13.5039063,6.91129296 L13.5039063,14.9286416 C13.5039063,15.1394435 13.5039063,15.1829787 13.3632812,15.3227496 L11.9078125,16.704419 L11.9078125,17 L18.9671875,17 L18.9671875,16.704419 L17.5632812,15.3548281 C17.4414063,15.2631751 17.378125,15.1096563 17.4039062,14.9607201 L17.4039062,5.03927986 C17.3791834,4.8892882 17.4403287,4.73808611 17.5632812,4.64517183 L17.5632812,4.64517183 Z" id="路径" fill="#C1C7DF" fill-rule="nonzero"></path>
    </g>
</svg>