<?xml version="1.0" encoding="UTF-8"?>
<svg width="20px" height="20px" viewBox="0 0 20 20" version="1.1" xmlns="http://www.w3.org/2000/svg" xmlns:xlink="http://www.w3.org/1999/xlink">
    <title>social_twitter</title>
    <g id="social_twitter" stroke="none" stroke-width="1" fill="none" fill-rule="evenodd">
        <path d="M19,4.66294789 C18.4900512,5.37753569 17.8732945,5.9863645 17.14973,6.48943431 C17.1574048,6.59151828 17.1612422,6.74464424 17.1612422,6.94881218 C17.1612422,7.89655977 17.0164866,8.84267402 16.7269756,9.78715492 C16.4374645,10.7316358 15.9976549,11.637529 15.4075469,12.5048344 C14.8174389,13.3721398 14.1149801,14.1396071 13.3001706,14.8072363 C12.485361,15.4748655 11.5031978,16.0071313 10.3536811,16.4040338 C9.2041643,16.8009363 7.97448835,16.9995917 6.66465321,17 C4.60140705,17 2.71318931,16.4714092 1,15.4142276 C1.26648664,15.4432194 1.56345935,15.4577154 1.89091814,15.4577154 C3.60410745,15.4577154 5.13075611,14.9546455 6.47086413,13.9485059 C5.67140421,13.9338058 4.95572769,13.6986044 4.32383457,13.2429015 C3.69194144,12.7871987 3.257888,12.2057284 3.02167425,11.4984906 C3.27281126,11.5348325 3.50497442,11.5530035 3.71816373,11.5530035 C4.04562251,11.5530035 4.36924389,11.5129865 4.68902786,11.4329527 C3.83627061,11.2651267 3.12997442,10.8586283 2.57013928,10.2134576 C2.01030415,9.56828689 1.73038658,8.81899054 1.73038658,7.96556853 L1.73038658,7.92208076 C2.24801023,8.19934083 2.80379477,8.34879176 3.39774019,8.37043357 C2.8950398,8.04948156 2.49530984,7.6301206 2.19855031,7.1123507 C1.90179079,6.5945808 1.75341103,6.03311896 1.75341103,5.42796517 C1.75341103,4.7864695 1.92097783,4.19213662 2.25611143,3.64496653 C3.17751563,4.73154832 4.29867823,5.60109959 5.6195992,6.25362034 C6.94052018,6.90614108 8.35481808,7.26894751 9.86249289,7.34203964 C9.80152075,7.06477957 9.77103468,6.79507372 9.77103468,6.53292208 C9.77103468,5.55577431 10.1308982,4.7227691 10.8506254,4.03390646 C11.5703525,3.34504382 12.4401649,3.00040834 13.4600625,3 C14.5260091,3 15.4243889,3.37178982 16.1552018,4.11536947 C16.9849346,3.96224351 17.7654207,3.67783757 18.49666,3.26215164 C18.2148238,4.10087355 17.6741757,4.74992344 16.8747157,5.20930131 C17.5829306,5.13620918 18.2909323,4.95388721 18.9987209,4.66233539 L19,4.66294789 Z" id="路径" fill="#C1C7DF" fill-rule="nonzero"></path>
    </g>
</svg>