<?xml version="1.0" encoding="UTF-8"?>
<svg width="48px" height="48px" viewBox="0 0 48 48" version="1.1" xmlns="http://www.w3.org/2000/svg" xmlns:xlink="http://www.w3.org/1999/xlink">
    <title>编组 4</title>
    <defs>
        <linearGradient x1="3.44429916%" y1="0%" x2="100%" y2="101.88879%" id="linearGradient-1">
            <stop stop-color="#2E71FF" offset="0%"></stop>
            <stop stop-color="#062EF5" offset="100%"></stop>
        </linearGradient>
        <linearGradient x1="22.4441777%" y1="4.64941944%" x2="50%" y2="100%" id="linearGradient-2">
            <stop stop-color="#5181FF" offset="0%"></stop>
            <stop stop-color="#163FE3" offset="100%"></stop>
        </linearGradient>
    </defs>
    <g id="个人中心" stroke="none" stroke-width="1" fill="none" fill-rule="evenodd">
        <g id="兑换_已登录备份" transform="translate(-936.000000, -463.000000)">
            <g id="new-version" transform="translate(750.000000, 403.000000)">
                <g id="编组-4" transform="translate(186.000000, 60.000000)">
                    <circle id="椭圆形" stroke="url(#linearGradient-2)" fill="url(#linearGradient-1)" cx="24" cy="24" r="23.5"></circle>
                    <path d="M34.4369938,12 C35.0133249,12 35.4825787,12.4585746 35.499526,13.030817 L35.5,13.0628645 L35.5,13.0628645 L35.5,13.5501053 C35.5,13.9207651 35.3627635,14.2782993 35.1147545,14.553763 L16.2528808,35.5036494 C15.9684217,35.8195982 15.563254,36 15.138118,36 L14.653,36 C14.0162157,36 13.5,35.4837843 13.5,34.847 L13.5,28.6757622 C13.5,28.3050766 13.6372555,27.9475194 13.8852955,27.672049 L27.5492046,12.4970643 C27.8336154,12.1812009 28.2386771,12.000826 28.6637174,12.0007694 L34.4369938,12 Z M29.2129744,26.682945 C29.2519319,26.7180148 29.2890244,26.7551025 29.3240992,26.7940555 L35.1139459,33.2240791 C35.3619915,33.4995508 35.4992504,33.8571121 35.4992504,34.2278023 L35.4992504,34.8259931 C35.4992504,35.4743792 34.9736296,36 34.3252435,36 L28.8620812,36 C28.436975,36 28.0318327,35.8196233 27.7473756,35.5037128 L24.403921,31.7905619 C23.8902332,31.220074 23.890178,30.3538154 24.403793,29.783262 L27.0945618,26.7941998 C27.6488231,26.1784942 28.5972687,26.1286837 29.2129744,26.682945 Z M19,12.0008583 C19.8284234,12.0008583 20.5,12.6724349 20.5,13.5008583 L20.5,16.3660746 C20.5,16.7367628 20.3627426,17.0943222 20.1146996,17.3697933 L15.243144,22.7800353 C14.873585,23.1904594 14.2412838,23.2235871 13.8308597,22.8540281 C13.6202517,22.6643899 13.5,22.3942944 13.5,22.1108895 L13.5,13.5008583 C13.5,12.6724349 14.1715766,12.0008583 15,12.0008583 L19,12.0008583 Z" id="形状" fill="#FFFFFF"></path>
                </g>
            </g>
        </g>
    </g>
</svg>